<svg width="814" height="792" viewBox="0 0 814 792" fill="none" xmlns="http://www.w3.org/2000/svg">
<path d="M284.746 647.119C284.107 647.148 283.475 646.981 282.935 646.639C282.396 646.297 281.974 645.798 281.727 645.209C281.481 644.619 281.421 643.968 281.557 643.344C281.693 642.72 282.018 642.153 282.487 641.719L282.701 640.87C282.672 640.802 282.644 640.734 282.616 640.667C281.973 639.148 280.895 637.854 279.518 636.945C278.142 636.037 276.527 635.556 274.878 635.562C273.229 635.568 271.618 636.062 270.248 636.98C268.878 637.898 267.81 639.201 267.179 640.724C264.654 646.803 261.439 652.893 260.648 659.32C260.299 662.162 260.446 665.042 261.082 667.833C255.152 654.901 252.073 640.845 252.053 626.619C252.052 623.049 252.25 619.482 252.647 615.934C252.975 613.026 253.431 610.138 254.013 607.271C257.192 591.715 264.016 577.135 273.925 564.727C278.722 562.111 282.6 558.088 285.039 553.2C285.922 551.443 286.547 549.568 286.893 547.632C286.352 547.703 284.853 539.465 285.261 538.96C284.507 537.816 283.157 537.248 282.334 536.132C278.238 530.581 272.596 531.55 269.65 539.093C263.358 542.268 263.297 547.533 267.158 552.597C269.614 555.819 269.952 560.179 272.107 563.628C271.885 563.912 271.655 564.187 271.433 564.47C267.38 569.681 263.847 575.276 260.885 581.176C261.605 574.567 260.746 567.881 258.377 561.668C255.976 555.879 251.477 551.003 247.514 545.997C242.754 539.985 232.994 542.609 232.156 550.23C232.148 550.304 232.14 550.378 232.132 550.452C232.721 550.784 233.297 551.136 233.86 551.509C234.569 551.982 235.117 552.657 235.435 553.448C235.752 554.238 235.823 555.105 235.639 555.936C235.455 556.768 235.024 557.524 234.402 558.106C233.781 558.688 232.998 559.069 232.156 559.199L232.07 559.212C232.28 561.333 232.65 563.434 233.179 565.499C228.095 585.152 239.07 592.31 254.741 592.632C255.086 592.809 255.424 592.987 255.769 593.155C252.794 601.585 250.927 610.366 250.217 619.277C249.815 624.534 249.839 629.816 250.288 635.069L250.261 634.883C249.126 629.041 246.009 623.77 241.436 619.96C234.645 614.383 225.049 612.329 217.723 607.846C216.944 607.346 216.039 607.079 215.113 607.077C214.188 607.075 213.281 607.337 212.5 607.833C211.719 608.329 211.096 609.038 210.705 609.876C210.314 610.714 210.17 611.647 210.292 612.564C210.302 612.629 210.312 612.695 210.322 612.76C211.414 613.205 212.477 613.717 213.506 614.294C214.094 614.626 214.671 614.978 215.234 615.351C215.942 615.824 216.491 616.5 216.809 617.29C217.126 618.08 217.197 618.947 217.013 619.779C216.829 620.61 216.398 621.366 215.776 621.948C215.155 622.53 214.372 622.911 213.53 623.041L213.444 623.054C213.382 623.063 213.328 623.072 213.266 623.081C215.133 627.536 217.752 631.636 221.01 635.202C224.188 652.359 237.84 653.986 252.443 648.99H252.452C254.054 655.951 256.376 662.726 259.379 669.207H284.125C284.214 668.932 284.294 668.648 284.374 668.373C282.083 668.517 279.784 668.38 277.526 667.966C279.362 665.713 281.199 663.443 283.035 661.191C283.075 661.149 283.114 661.105 283.15 661.058C284.081 659.905 285.021 658.762 285.953 657.609L285.953 657.608C286.003 654.074 285.596 650.549 284.746 647.119Z" fill="#F2F2F2"/>
<path d="M94.4064 609.701L101.234 616.915L132.938 593.434L122.861 582.786L94.4064 609.701Z" fill="#A0616A"/>
<path d="M105.595 613.692L97.8654 606.432L95.9672 604.654L76.2883 620.383L81.4073 625.792L87.4329 621.929L84.6647 629.234L98.2371 643.575C98.8874 644.263 99.7406 644.725 100.672 644.893C101.604 645.062 102.565 644.929 103.415 644.513C104.266 644.097 104.961 643.42 105.399 642.582C105.838 641.743 105.997 640.786 105.853 639.85L102.924 620.906L108.085 616.026L105.595 613.692Z" fill="#2F2E41"/>
<path d="M244.465 347.029L242.3 370.655C242.3 370.655 238.522 388.455 241.138 387.012C243.755 385.569 239.064 392.063 240.299 397.694C241.535 403.325 229.746 445.317 235.085 440.967C240.425 436.617 231.999 466.668 226.671 481.494C225.039 486.077 223.363 490.715 221.676 495.321C221.343 496.253 221.01 497.174 220.666 498.106C218.479 504.099 216.292 510.002 214.194 515.573C213.894 516.35 213.606 517.127 213.317 517.893C213.306 517.915 213.306 517.937 213.295 517.937C206.39 536.103 200.474 550.396 198.109 552.76C196.877 553.992 177.33 568.108 157.626 582.245C136.946 597.082 116.099 611.952 116.099 611.952L96.629 591.534C96.629 591.534 97.0951 591.4 97.9721 591.134C99.5928 590.668 102.59 589.791 106.52 588.626C122.904 583.799 102.09 576.286 116.965 570.915C121.161 569.406 123.959 568.23 124.591 567.608C128.288 564.001 133.25 555.401 135.592 559.008C137.934 562.614 148.557 535.815 151.621 533.162C153.264 531.731 158.625 525.039 163.221 519.158C167.172 514.097 170.569 509.625 170.569 509.625C170.569 509.625 170.636 507.228 170.736 503.411C170.88 497.762 171.091 488.984 171.313 480.195C171.302 480.184 171.302 480.184 171.313 480.184C171.391 476.877 171.468 473.57 171.546 470.43C171.602 467.999 171.657 465.658 171.713 463.494C171.857 457.013 171.957 452.108 171.957 450.887C171.957 446.882 171.957 450 175.12 447.581C175.593 447.21 176.042 446.809 176.464 446.382C177.14 445.773 177.764 445.109 178.329 444.396C178.562 443.897 177.108 444.573 175.22 444.196C174.198 443.991 173.253 443.507 172.49 442.798C168.515 439.225 172.801 428.239 172.801 428.239C163.765 410.172 164.42 395.357 168.649 383.938C171.811 375.744 176.83 368.394 183.313 362.465C185.78 360.115 188.467 358.008 191.339 356.173L191.616 354.675L194.669 338.151C196.292 337.26 197.98 336.492 199.719 335.854C205.141 333.909 210.959 333.33 216.658 334.168C222.323 334.987 227.807 336.762 232.876 339.416C237.021 341.498 240.91 344.052 244.465 347.029Z" fill="#2F2E41"/>
<path d="M159.209 646.511L169.1 647.431L177.436 608.874L162.835 607.517L159.209 646.511Z" fill="#A0616A"/>
<path d="M187.697 661.623L173 649.317L173.666 642.237L170.248 642.126L159.658 641.782H159.646L157.049 641.693L152.642 666.484L160.068 667.172L162.033 660.292L164.775 667.616L168.704 667.983L184.434 669.447C184.567 669.458 184.711 669.469 184.845 669.469C185.47 669.47 186.088 669.338 186.659 669.082C187.229 668.825 187.738 668.451 188.153 667.983C188.796 667.278 189.19 666.381 189.273 665.43C189.338 664.715 189.229 663.996 188.954 663.332C188.68 662.669 188.248 662.083 187.697 661.623Z" fill="#2F2E41"/>
<path d="M214.194 515.573C210.431 536.048 194.502 584.054 184.867 612.152C180.482 624.992 177.418 633.681 177.418 633.681L172.423 632.105H172.412L163.964 629.441L160.89 628.465H160.878L157.149 627.278C157.149 627.278 157.582 604.351 157.626 582.245C157.659 572.979 157.615 563.846 157.437 556.611C157.237 548.721 156.893 543.072 156.327 541.951C153.985 537.357 157.904 536.869 162.044 535.714C166.195 534.549 162.954 532.796 161.344 529.067C160.257 526.581 162.399 523.264 163.92 521.377C164.34 520.846 164.788 520.338 165.263 519.856C165.263 519.856 164.53 519.601 163.221 519.157C167.172 514.097 170.569 509.625 170.569 509.625C170.569 509.625 170.636 507.228 170.735 503.411C170.88 497.762 171.091 488.984 171.313 480.195C171.302 480.184 171.302 480.184 171.313 480.184C171.391 476.877 171.468 473.57 171.546 470.43C177.895 475.301 184.067 480.074 189.662 484.49C189.669 484.495 189.674 484.502 189.678 484.51C189.682 484.518 189.684 484.526 189.684 484.535C203.127 495.154 213.217 503.677 214.638 506.385C215.282 507.605 215.06 510.868 214.194 515.573Z" fill="#2F2E41"/>
<path d="M545.131 154.063C546.981 153.89 548.826 154.446 550.273 155.612C551.72 156.778 552.655 158.462 552.878 160.307C552.918 160.682 552.926 161.061 552.903 161.438L575.795 171.21L574.921 184.567L545.011 167.791C543.454 167.575 542.013 166.85 540.912 165.729C539.811 164.608 539.113 163.154 538.925 161.594C538.827 160.706 538.904 159.807 539.154 158.948C539.403 158.09 539.819 157.289 540.378 156.591C540.937 155.894 541.628 155.313 542.412 154.882C543.195 154.451 544.056 154.179 544.945 154.081C545.007 154.074 545.069 154.068 545.131 154.063Z" fill="#FFB6B6"/>
<path d="M700.872 236.512C700.307 233.923 699.256 231.464 697.775 229.265C697.364 228.64 696.915 228.039 696.432 227.467C694.634 225.326 692.958 223.362 691.404 221.608C690.46 220.51 689.539 219.489 688.673 218.546C683.645 213.03 680.348 210.112 678.838 209.867C678.105 209.746 677.384 209.657 676.684 209.568C673.099 209.124 670.501 208.802 670.424 205.018C670.416 204.476 670.453 203.934 670.534 203.398C670.669 202.497 670.866 201.608 671.123 200.734C671.271 200.24 671.386 199.735 671.467 199.225C671.578 198.571 671.534 198.082 671.178 197.782C670.734 197.417 669.991 197.472 668.592 198.027C668.37 198.116 668.115 198.215 667.848 198.337C667.759 198.371 667.671 198.415 667.571 198.46C667.393 198.537 667.193 198.626 666.994 198.726C665.318 199.525 662.731 199.625 659.779 199.325C651.065 198.438 639.276 194.043 639.132 193.987L564.891 165.146L564.204 166.256L562.572 168.897L562.006 169.806L561.362 170.849L558.553 175.377L557.132 177.663L581.11 195.741L583.718 197.705L585.961 199.403L631.739 233.926L648.811 245.19L652.619 247.698L668.848 258.395C671.18 259.936 673.798 260.994 676.546 261.507C679.295 262.02 682.118 261.977 684.849 261.381C687.581 260.786 690.165 259.649 692.45 258.038C694.735 256.428 696.674 254.376 698.153 252.004C701.035 247.388 702.01 241.833 700.872 236.512Z" fill="#E6E6E6"/>
<path d="M807.155 670.2H7.11005C6.81564 670.2 6.5333 670.083 6.32512 669.875C6.11695 669.667 6 669.384 6 669.09C6 668.796 6.11695 668.513 6.32512 668.305C6.5333 668.097 6.81564 667.98 7.11005 667.98H807.155C807.45 667.98 807.732 668.097 807.94 668.305C808.148 668.513 808.265 668.796 808.265 669.09C808.265 669.384 808.148 669.667 807.94 669.875C807.732 670.083 807.45 670.2 807.155 670.2Z" fill="#E6E6E6"/>
<path d="M189.064 307.091L191.144 326.381L189.92 351.673L245.961 345.018L251.226 307.091L244.517 307.158L189.064 307.091Z" fill="#FFB6B6"/>
<path d="M236.732 244.79L215.641 228.144L204.57 227.5L188.142 238.021L184.12 258.537L174.606 281.64L188.56 343.986C188.56 343.986 189.869 348.46 186.439 348.997C183.01 349.534 183.421 356.129 183.421 356.129C183.421 356.129 184.119 361.844 180.789 362.348C177.459 362.851 168.579 362.851 176.349 372.839C184.12 382.826 245.578 345.052 245.578 345.052L254.505 298.228C254.505 298.228 271.816 274.983 253.173 261.671L236.732 244.79Z" fill="#E6E6E6"/>
<path d="M144.661 386.344C143.731 385.185 143.068 383.836 142.716 382.392C142.365 380.949 142.334 379.446 142.627 377.989C142.919 376.533 143.528 375.158 144.409 373.962C145.29 372.766 146.423 371.777 147.728 371.066L174.257 282.062L190.846 290.411L161.955 375.721C163.004 377.991 163.184 380.568 162.461 382.962C161.737 385.357 160.16 387.402 158.028 388.712C155.896 390.021 153.358 390.504 150.894 390.067C148.431 389.631 146.213 388.306 144.661 386.344Z" fill="#A0616A"/>
<path d="M191.952 237.198C191.952 237.198 187.21 234.679 183.967 245.581C181.37 254.309 160.3 306.297 160.031 318.937C158.297 319.304 156.734 320.238 155.59 321.59C154.445 322.943 153.783 324.638 153.708 326.409L179.759 329.899C184.312 326.06 185.506 320.876 183.745 319.337L189.401 303.893L212.999 254.756L195.412 238.958L191.952 237.198Z" fill="#E6E6E6"/>
<path d="M331.153 357.088C331.49 355.641 331.505 354.138 331.197 352.684C330.89 351.231 330.267 349.863 329.373 348.676C328.479 347.489 327.336 346.512 326.024 345.815C324.712 345.117 323.263 344.716 321.779 344.639L260.922 275.156L248.012 290.555L310.964 354.986C311 357.487 311.953 359.888 313.641 361.734C315.329 363.58 317.636 364.743 320.125 365.002C322.614 365.261 325.111 364.599 327.143 363.14C329.176 361.681 330.603 359.528 331.153 357.088Z" fill="#A0616A"/>
<path d="M223.996 243.054C223.996 243.054 227.182 238.732 234.823 247.16C240.939 253.907 282.426 291.674 288.136 302.954C289.858 302.536 291.671 302.702 293.289 303.427C294.906 304.152 296.236 305.394 297.07 306.958L275.09 321.367C269.325 319.874 266.005 315.716 266.928 313.567L255.147 302.087L212.614 267.984L221.638 246.137L223.996 243.054Z" fill="#E6E6E6"/>
<path d="M450.937 433.829C536.766 433.829 606.344 364.272 606.344 278.468C606.344 192.665 536.766 123.108 450.937 123.108C365.109 123.108 295.531 192.665 295.531 278.468C295.531 364.272 365.109 433.829 450.937 433.829Z" fill="#3BF4FB"/>
<path opacity="0.2" d="M443.586 333.455C436.467 340.572 426.811 344.57 416.743 344.57C406.675 344.57 397.019 340.572 389.899 333.455C383.781 327.336 379.938 319.312 379.005 310.711C378.072 302.111 380.105 293.449 384.769 286.162L376.417 294.68C369.298 301.798 365.298 311.451 365.298 321.516C365.298 331.581 369.298 341.234 376.417 348.351C383.537 355.469 393.193 359.467 403.261 359.467C413.329 359.467 422.985 355.469 430.104 348.351L448.612 329.139L448.894 327.945L443.586 333.455Z" fill="black"/>
<path opacity="0.2" d="M461.217 214.763C469.538 209.097 479.771 206.967 489.662 208.843C499.554 210.719 508.295 216.447 513.963 224.766C518.833 231.917 521.113 240.517 520.427 249.141C519.74 257.765 516.127 265.895 510.186 272.186L519.98 265.373C528.301 259.707 534.03 250.968 535.907 241.079C537.784 231.191 535.654 220.961 529.986 212.642C524.318 204.323 515.577 198.596 505.685 196.72C495.794 194.844 485.562 196.973 477.24 202.639L455.474 218.066L454.975 219.187L461.217 214.763Z" fill="black"/>
<path d="M403.261 364.215C395.094 364.215 387.111 361.794 380.32 357.258C373.529 352.722 368.237 346.275 365.111 338.732C361.986 331.189 361.168 322.889 362.762 314.881C364.355 306.874 368.288 299.518 374.063 293.745L409.105 258.004C412.938 254.165 417.491 251.12 422.502 249.041C427.513 246.963 432.885 245.892 438.31 245.889C443.735 245.887 449.108 246.954 454.121 249.029C459.134 251.103 463.688 254.145 467.525 257.98C468.149 258.605 468.5 259.451 468.5 260.334C468.5 261.217 468.149 262.064 467.525 262.688C466.9 263.312 466.053 263.663 465.17 263.663C464.287 263.663 463.44 263.312 462.816 262.688C456.321 256.195 447.512 252.548 438.327 252.548C429.142 252.548 420.333 256.195 413.838 262.688C408.691 280.828 397.57 293.274 378.796 298.429C375.575 301.642 373.018 305.458 371.272 309.658C369.527 313.859 368.626 318.363 368.623 322.911C368.619 327.46 369.512 331.965 371.25 336.169C372.988 340.373 375.538 344.193 378.754 347.411C381.97 350.629 385.789 353.182 389.992 354.924C394.195 356.666 398.701 357.563 403.251 357.563C407.801 357.564 412.307 356.668 416.51 354.927C420.714 353.186 424.533 350.634 427.75 347.416C426.991 339.975 429.166 332.979 446.214 328.249C446.517 327.933 446.88 327.679 447.281 327.503C447.682 327.327 448.114 327.232 448.552 327.223C448.99 327.214 449.426 327.292 449.833 327.452C450.241 327.611 450.614 327.85 450.929 328.154C451.245 328.458 451.497 328.821 451.672 329.222C451.847 329.624 451.941 330.056 451.949 330.494C451.956 330.932 451.877 331.367 451.716 331.774C451.555 332.181 451.316 332.553 451.011 332.867L432.503 352.08C428.675 355.937 424.119 358.995 419.099 361.079C414.079 363.162 408.696 364.228 403.261 364.215Z" fill="white"/>
<path d="M460.153 313.653C454.728 313.668 449.354 312.607 444.342 310.531C439.33 308.456 434.78 305.407 430.954 301.562C430.33 300.937 429.979 300.09 429.979 299.208C429.979 298.325 430.33 297.478 430.955 296.854C431.579 296.229 432.426 295.879 433.31 295.879C434.193 295.879 435.04 296.23 435.664 296.854C438.88 300.069 442.698 302.619 446.9 304.359C451.101 306.099 455.605 306.995 460.153 306.995C464.701 306.995 469.204 306.099 473.406 304.359C477.608 302.619 481.425 300.069 484.641 296.854C489.079 270.127 507.173 266.355 522.901 258.607C526.117 255.392 528.668 251.575 530.408 247.374C532.149 243.174 533.044 238.672 533.044 234.125C533.044 229.578 532.149 225.076 530.408 220.876C528.668 216.675 526.117 212.858 522.901 209.643C519.685 206.428 515.867 203.878 511.665 202.138C507.463 200.398 502.96 199.503 498.412 199.503C493.864 199.503 489.36 200.398 485.158 202.138C480.957 203.878 477.139 206.429 473.923 209.644C469.548 222.262 465.252 235.03 452.222 231.338C451.912 231.648 451.545 231.893 451.141 232.06C450.737 232.227 450.304 232.313 449.867 232.313C448.984 232.313 448.137 231.963 447.512 231.338C446.888 230.714 446.537 229.867 446.537 228.985C446.537 228.102 446.888 227.255 447.512 226.631L469.213 204.936C473.048 201.103 477.6 198.062 482.61 195.987C487.619 193.913 492.989 192.845 498.411 192.845C503.834 192.845 509.203 193.913 514.213 195.987C519.223 198.062 523.775 201.102 527.609 204.936C531.444 208.769 534.485 213.319 536.561 218.328C538.636 223.336 539.704 228.704 539.704 234.125C539.704 239.546 538.636 244.914 536.561 249.922C534.485 254.93 531.444 259.481 527.61 263.314L489.35 301.562C485.525 305.408 480.975 308.456 475.963 310.532C470.951 312.607 465.577 313.668 460.153 313.653Z" fill="white"/>
<path d="M585.961 199.403C579.434 188.322 571.579 178.077 562.572 168.897C560.562 166.855 558.487 164.857 556.367 162.915C555.19 161.839 554.002 160.784 552.792 159.752C550.494 157.777 548.13 155.868 545.721 154.026C518.51 133.218 485.194 121.961 450.934 122C364.639 122 294.417 192.19 294.417 278.471C294.413 287.984 295.279 297.478 297.003 306.835C297.006 306.887 297.014 306.939 297.026 306.99C297.814 311.285 298.791 315.524 299.923 319.685C307.944 349.058 324.363 375.453 347.169 395.635C369.974 415.816 398.174 428.907 428.312 433.302C458.449 437.698 489.215 433.207 516.837 420.38C544.459 407.553 567.737 386.947 583.818 361.089C585.982 357.604 588.017 354.031 589.923 350.369C602.078 326.921 608.09 300.776 607.397 274.376C606.704 247.975 599.329 222.181 585.961 199.403ZM450.934 432.722C430.67 432.729 410.602 428.744 391.879 420.994C373.156 413.245 356.144 401.883 341.814 387.558C327.485 373.233 316.12 356.226 308.368 337.508C300.617 318.791 296.631 298.729 296.637 278.471C296.637 193.41 365.86 124.22 450.934 124.22C471.522 124.231 491.899 128.363 510.864 136.371C529.83 144.38 547 156.103 561.362 170.849C565.108 174.672 568.643 178.695 571.952 182.901C575.228 187.017 578.285 191.303 581.109 195.741C592.885 214.234 600.58 235.026 603.681 256.728C606.782 278.43 605.218 300.544 599.092 321.594C597.727 326.299 596.128 330.905 594.33 335.421C592.521 339.949 590.511 344.388 588.291 348.694C575.309 373.948 555.627 395.145 531.401 409.966C507.174 424.786 479.337 432.659 450.934 432.722Z" fill="#3F3D56"/>
<path d="M663.854 646.863L653.652 646.777L649.135 606.517L664.194 606.645L663.854 646.863Z" fill="#FFB6B6"/>
<path d="M666.561 642.159L663.897 641.982L653.03 641.238L649.532 641.005L649.466 648.296L633.171 659.349C632.366 659.895 631.757 660.685 631.433 661.602C631.108 662.519 631.086 663.516 631.369 664.446C631.651 665.377 632.224 666.193 633.004 666.775C633.783 667.357 634.728 667.675 635.701 667.682L655.982 667.849L659.534 660.658L660.833 667.894L668.492 667.96L666.561 642.159Z" fill="#2F2E41"/>
<path d="M771.275 639.411L761.523 642.408L745.061 605.39L759.455 600.967L771.275 639.411Z" fill="#FFB6B6"/>
<path d="M772.437 634.113L769.839 634.746L759.261 637.31L755.853 638.142L757.995 645.122L745.796 660.569C745.266 661.243 744.937 662.051 744.845 662.903C744.753 663.755 744.903 664.615 745.277 665.386C745.651 666.156 746.234 666.806 746.96 667.261C747.686 667.717 748.525 667.959 749.382 667.96C749.833 667.959 750.282 667.892 750.714 667.76L770.106 661.801L771.316 653.867L774.746 660.369L782.062 658.117L772.437 634.113Z" fill="#2F2E41"/>
<path d="M643.332 308.34L623.862 364.906L623.219 369.433C618.313 374.09 624.476 375.624 622.165 376.852C619.854 378.08 618.3 381.522 621.414 382.138C624.529 382.753 634.569 603.386 647.812 611.953C661.056 620.519 669.115 626.716 666.683 614.172C665.703 609.118 667.089 582.021 669.094 551.464C669.321 548.001 672.911 544.335 669.797 540.968C666.683 537.601 670.18 535.386 670.376 532.591C673.169 492.689 676.395 453.295 676.395 453.295C676.395 453.295 697.035 524.159 702.395 518.673C707.755 513.187 705.633 526.694 707.271 530.73C708.64 534.102 702.8 540.727 711.383 540.829C719.965 540.93 740.121 609.811 742.166 609.733C746.217 609.579 757.605 610.015 764.367 608.623C767.707 607.936 752.883 555.786 740.505 510.754C739.518 507.163 734.146 507.079 737.601 500.146C741.056 493.212 723.865 448.351 725.34 446.276C729.256 440.769 730.747 438.375 726.885 438.014C723.024 437.653 721.883 439.771 721.674 434.429C721.466 429.087 720.799 415.913 720.799 415.913C720.799 415.913 718.002 363.813 698.414 335.028L696.743 317.926L643.332 308.34Z" fill="#2F2E41"/>
<path d="M691.975 200.34L666.155 204.015L664.597 222.706L651.855 242.631C651.855 242.631 623.534 262.556 643.286 294.032C635.769 321.146 628.296 347.149 621.171 364.485C615.621 398.886 665.343 402.183 722.185 390.008C722.185 390.008 721.402 375.299 716.243 368.227C711.085 361.156 713.893 359.612 713.893 359.612L710.288 346.4C712.328 327.304 705.441 325.59 702.204 316.767L712.031 225.221L691.975 200.34Z" fill="#E6E6E6"/>
<path d="M568.023 360.352C568.296 358.514 569.276 356.856 570.754 355.73C572.233 354.603 574.092 354.098 575.937 354.321C576.311 354.372 576.681 354.455 577.042 354.567L591.998 334.676L604.764 338.712L581.329 363.745C580.747 365.205 579.699 366.431 578.348 367.232C576.996 368.033 575.417 368.365 573.857 368.175C572.971 368.058 572.116 367.768 571.342 367.321C570.567 366.874 569.889 366.279 569.344 365.57C568.8 364.86 568.401 364.051 568.169 363.187C567.938 362.324 567.879 361.423 567.996 360.537C568.004 360.475 568.013 360.414 568.023 360.352Z" fill="#FFB6B6"/>
<path d="M700.872 236.512C700.506 236.057 700.106 235.613 699.685 235.18C696.753 232.159 692.977 230.094 688.851 229.255C684.725 228.415 680.442 228.841 676.562 230.475C676.185 230.63 675.807 230.808 675.441 230.986C662.176 237.499 655.017 241.839 654.151 243.869C653.851 244.558 653.596 245.234 653.34 245.889C653.096 246.533 652.863 247.143 652.619 247.698C651.598 250.073 650.421 251.549 647.423 250.883C646.43 250.64 645.471 250.271 644.571 249.784C644.16 249.584 643.783 249.374 643.427 249.174C642.14 248.464 641.207 247.953 640.575 248.419C639.964 248.874 639.942 250.028 640.497 252.703C640.681 253.819 640.651 254.96 640.408 256.065C639.674 259.289 638.525 262.403 636.989 265.331C634.688 269.921 632.1 274.361 629.241 278.626L602.833 316.267L601.046 318.809L599.092 321.594L583.507 343.811L584.428 344.754L588.291 348.694L589.146 349.57L589.923 350.369L591.933 352.422L593.819 354.342L635.924 320.052L640.619 316.223L649.033 309.365L666.272 295.327L698.897 265.143C700.956 263.253 702.612 260.966 703.766 258.42C704.92 255.875 705.548 253.122 705.612 250.328C705.612 250.139 705.624 249.962 705.624 249.773C705.636 244.934 703.955 240.243 700.872 236.512Z" fill="#E6E6E6"/>
<path d="M676.474 199.659C692.408 199.659 705.326 186.746 705.326 170.816C705.326 154.886 692.408 141.972 676.474 141.972C660.539 141.972 647.622 154.886 647.622 170.816C647.622 186.746 660.539 199.659 676.474 199.659Z" fill="#FFB6B6"/>
<path d="M714.709 210.811C718.582 216.352 721.172 222.684 722.292 229.349C719.172 231.345 715.539 232.393 711.834 232.367C711.709 231.882 711.583 231.397 711.439 230.912C710.366 227.157 708.769 223.571 706.696 220.26C706.98 223.83 706.496 227.419 705.276 230.786C703.318 229.897 701.221 229.356 699.077 229.188C697.331 229.188 695.608 229.593 694.046 230.373C692.231 224.356 690.56 218.823 689.374 214.853C689.338 224.805 674.748 233.481 658.828 232.224C658.253 231.864 664.021 215.5 663.464 215.123C662.188 214.278 660.948 213.362 659.708 212.464C664.919 204.417 670.579 195.794 669.609 194.501C669.681 196.1 663.967 203.788 657.75 211.045C654.3 208.512 673.903 167.305 664.218 163.964C664.057 165.419 661.918 165.419 659.313 165.114C658.626 162.713 657.603 160.421 656.276 158.305C656.449 160.436 656.192 162.58 655.522 164.61C652.949 164.611 650.383 164.882 647.867 165.419C647.285 164.503 646.643 163.627 645.945 162.796C646.013 163.809 645.983 164.825 645.855 165.832C643.285 166.389 641.165 167.035 640.86 167.556C638.847 166.82 642.279 163.497 641.021 161.772C637.823 157.461 642.567 151.174 645.567 146.719C651.73 137.594 665.261 134.433 674.838 139.911C675.269 138.42 677.479 137.432 680.318 136.768C681.521 136.503 682.752 136.388 683.984 136.426C696.202 136.642 713.164 146.719 713.829 158.916C713.883 160.138 713.973 161.467 714.063 162.886C714.925 176.538 713.865 189.13 723.191 199.118C726.569 202.728 726.604 219.829 725.311 228.631C721.951 225.092 719.561 211.332 714.709 210.811Z" fill="#2F2E41"/>
<path d="M396.941 282.366C398.781 282.366 400.271 280.875 400.271 279.036C400.271 277.198 398.781 275.707 396.941 275.707C395.102 275.707 393.611 277.198 393.611 279.036C393.611 280.875 395.102 282.366 396.941 282.366Z" fill="#3BF4FB"/>
<path d="M502.396 280.146C504.235 280.146 505.726 278.656 505.726 276.817C505.726 274.978 504.235 273.488 502.396 273.488C500.557 273.488 499.066 274.978 499.066 276.817C499.066 278.656 500.557 280.146 502.396 280.146Z" fill="#3BF4FB"/>
<path d="M185.4 182.809C182.865 189.119 175.716 201.528 174.747 208.297L175.183 207.869C176.015 209.289 176.959 210.639 178.008 211.907C179.889 209.933 182.16 208.372 184.676 207.324C183.302 210.143 182.506 213.208 182.335 216.34C185.034 224.795 197.507 221.03 204.816 220.107C212.114 228.453 221.825 230.63 234.54 225.832C238.096 226.198 242.077 226.42 244.569 224.32C247.061 222.219 245.577 218.329 246.918 215.386C256.468 194.427 247.654 186.865 240.166 177.361C238.518 175.27 238.525 172.149 236.52 170.153C233.738 167.388 229.473 166.537 225.541 165.855C226.563 165.909 227.581 165.699 228.497 165.246C229.414 164.792 230.199 164.11 230.775 163.266C231.281 162.415 231.542 161.441 231.53 160.451C231.517 159.462 231.232 158.495 230.704 157.657C229.298 155.326 226.376 153.971 223.557 153.633C220.779 153.444 217.989 153.684 215.285 154.343C213.533 154.574 211.836 155.116 210.276 155.944C209.539 156.337 208.94 156.945 208.559 157.687C208.178 158.429 208.032 159.27 208.142 160.097C208.377 160.861 208.781 161.562 209.325 162.148C209.868 162.734 210.537 163.19 211.282 163.481C212.417 163.961 213.61 164.287 214.832 164.452C209.223 163.725 203.525 164.722 198.497 167.311C192.195 170.671 187.943 176.502 185.4 182.809Z" fill="#2F2E41"/>
<path d="M219.522 218.185C231.962 218.185 242.048 208.103 242.048 195.666C242.048 183.229 231.962 173.147 219.522 173.147C207.081 173.147 196.996 183.229 196.996 195.666C196.996 208.103 207.081 218.185 219.522 218.185Z" fill="#A0616A"/>
<path d="M197.846 183.592C199.152 187.538 202.884 188.809 206.334 189.602C207.422 189.856 208.516 190.092 209.621 190.302C210.028 189.793 210.462 189.294 210.915 188.822C212.795 186.848 215.066 185.287 217.582 184.238C216.494 186.465 215.771 188.852 215.44 191.309C217.526 191.611 219.623 191.858 221.731 192.05C223.515 192.43 225.377 192.11 226.932 191.156C228.486 190.203 229.615 188.688 230.085 186.926C232.004 190.064 234.274 193.02 237.378 194.266C239.153 194.904 241.086 194.956 242.893 194.416C244.7 193.876 246.286 192.771 247.419 191.263C249.209 188.805 250.449 185.99 251.058 183.011C251.939 179.516 252.428 175.491 250.698 173.274C249.313 171.479 246.923 171.447 244.717 171.606C239.85 171.98 235.034 172.852 230.345 174.211L229.949 175.103C230.754 170.264 229.007 165.608 225.773 163.952C223.592 162.845 220.967 163.031 218.417 163.255C215.142 163.401 211.906 164.027 208.813 165.112C205.264 166.477 202.223 168.904 200.107 172.063C197.844 175.498 196.719 180.184 197.846 183.592Z" fill="#2F2E41"/>
<path d="M229.959 162.544C229.737 162.478 230.312 162.562 230.113 162.568C230.212 162.562 230.311 162.548 230.408 162.527C230.424 162.523 230.648 162.452 230.499 162.504C230.834 162.404 231.132 162.21 231.359 161.944C231.888 161.29 232.303 160.551 232.586 159.759C232.945 158.712 233.52 157.753 234.275 156.944C234.489 156.729 234.751 156.568 235.04 156.473C235.328 156.378 235.635 156.352 235.935 156.398C236.235 156.444 236.521 156.56 236.768 156.736C237.015 156.913 237.216 157.146 237.357 157.415C237.642 158.454 237.544 159.56 237.082 160.533C236.759 161.523 236.278 162.455 235.659 163.292C234.62 164.66 233.206 165.698 231.589 166.277C229.716 166.957 227.674 167.015 225.766 166.443C225.514 166.339 225.298 166.163 225.144 165.938C224.99 165.712 224.905 165.447 224.899 165.175C224.893 164.902 224.966 164.633 225.11 164.401C225.254 164.17 225.463 163.985 225.71 163.869L228.893 162.567C229.06 162.493 229.24 162.453 229.423 162.449C229.606 162.445 229.788 162.477 229.959 162.544C230.129 162.61 230.285 162.709 230.418 162.836C230.55 162.962 230.656 163.114 230.729 163.281C230.803 163.449 230.843 163.629 230.847 163.812C230.851 163.995 230.819 164.177 230.753 164.347C230.686 164.518 230.587 164.674 230.461 164.806C230.334 164.938 230.183 165.044 230.015 165.118L226.833 166.42L226.776 163.846C227.173 163.961 227.582 164.03 227.995 164.054C228.435 164.098 228.879 164.08 229.314 163.999C229.731 163.944 230.14 163.844 230.535 163.701C230.788 163.609 231.036 163.504 231.279 163.386C231.366 163.343 231.454 163.299 231.54 163.253C231.534 163.256 231.904 163.041 231.742 163.142C232.153 162.879 232.54 162.578 232.895 162.244C233.021 162.125 233.137 161.996 233.241 161.859C233.423 161.636 233.591 161.403 233.745 161.161C234.058 160.648 234.307 160.098 234.484 159.523C234.565 159.282 234.633 159.036 234.689 158.788C234.704 158.651 234.729 158.516 234.762 158.383C234.881 158.066 234.74 158.568 234.876 158.706L235.463 159.138C235.573 159.171 235.689 159.178 235.802 159.16C235.916 159.142 236.024 159.098 236.118 159.033C236.188 158.935 236.173 158.951 236.073 159.081C235.956 159.235 235.85 159.395 235.754 159.562C235.544 159.954 235.354 160.357 235.184 160.769C234.834 161.645 234.392 162.48 233.864 163.262C233.347 164.053 232.593 164.66 231.711 164.997C230.828 165.335 229.861 165.385 228.949 165.141C228.606 165.005 228.331 164.739 228.182 164.402C228.034 164.064 228.024 163.682 228.155 163.337C228.295 162.998 228.561 162.725 228.897 162.578C229.233 162.43 229.614 162.418 229.959 162.544Z" fill="#2F2E41"/>
</svg>
