<svg width="13" height="12" viewBox="0 0 13 12" fill="none" xmlns="http://www.w3.org/2000/svg">
<path d="M7.79492 0.071602C7.50293 0.201088 7.3125 0.493067 7.3125 0.812975V2.4379H4.46875C2.00078 2.4379 0 4.43859 0 6.90645C0 9.78308 2.06934 11.0678 2.54414 11.3268C2.60762 11.3623 2.67871 11.375 2.7498 11.375C3.02656 11.375 3.25 11.149 3.25 10.8748C3.25 10.6844 3.14082 10.5092 3.00117 10.3797C2.7625 10.1538 2.4375 9.70945 2.4375 8.93761C2.4375 7.59197 3.5293 6.50022 4.875 6.50022H7.3125V8.12515C7.3125 8.44505 7.50039 8.73703 7.79492 8.86652C8.08945 8.99601 8.42969 8.94269 8.66836 8.72942L12.7309 5.07333C12.901 4.91845 13 4.7001 13 4.46906C13 4.23802 12.9035 4.01967 12.7309 3.86479L8.66836 0.208705C8.42969 -0.00710532 8.08691 -0.0604233 7.79492 0.071602Z" fill="#161823"/>
</svg>
