<svg width="100" height="89" viewBox="0 0 100 89" fill="none" xmlns="http://www.w3.org/2000/svg">
<path d="M40.5553 19.8487C45.1942 11.5105 47.5137 7.34137 51.0417 7.34137C54.5697 7.34137 56.8891 11.5105 61.5281 19.8487L79.7214 52.5503C86.8332 65.3334 90.3891 71.7249 88.3037 74.785C86.2182 77.845 77.8616 76.7241 61.1483 74.4824C53.719 73.4859 46.3816 73.7377 38.6147 75.2483C22.9597 78.293 15.1322 79.8154 12.8856 76.7185C10.639 73.6217 14.1319 67.3434 21.1176 54.787L40.5553 19.8487Z" fill="#00AAFF"/>
<path d="M38.472 18.8487C43.1109 10.5105 45.4303 6.34137 48.9583 6.34137C52.4863 6.34137 54.8058 10.5105 59.4447 18.8487L77.6381 51.5503C84.7499 64.3334 88.3058 70.7249 86.2203 73.785C84.1349 76.845 75.7782 75.7241 59.065 73.4824C51.6356 72.4859 44.2983 72.7377 36.5313 74.2483C20.8763 77.293 13.0488 78.8154 10.8022 75.7185C8.55565 72.6217 12.0485 66.3434 19.0342 53.787L38.472 18.8487Z" fill="#3BF4FB"/>
<path d="M51.1069 66H50.6069C49.7403 66 48.9069 65.9167 48.1069 65.75C47.3069 65.5833 46.5903 65.2833 45.9569 64.85C45.3569 64.4167 44.8569 63.8167 44.4569 63.05C44.0903 62.2833 43.9069 61.2833 43.9069 60.05V29.7H44.7069C45.5069 29.7 46.2903 29.8 47.0569 30C47.8236 30.1667 48.5069 30.4833 49.1069 30.95C49.7069 31.3833 50.1903 31.9833 50.5569 32.75C50.9236 33.5167 51.1069 34.5 51.1069 35.7V66ZM62.0569 61.2C62.0569 61.7667 61.9403 62.3333 61.7069 62.9C61.5069 63.4667 61.1903 63.9833 60.7569 64.45C60.3569 64.8833 59.8236 65.25 59.1569 65.55C58.5236 65.85 57.7903 66 56.9569 66H56.7569C55.8569 66 55.1069 65.85 54.5069 65.55C53.9069 65.2167 53.4069 64.8333 53.0069 64.4C52.6403 63.9333 52.3736 63.45 52.2069 62.95C52.0736 62.4167 52.0069 61.95 52.0069 61.55C52.0069 61.2833 52.0069 61.05 52.0069 60.85C52.0403 60.6167 52.1069 60.3667 52.2069 60.1C52.6403 60.5 53.1736 60.7 53.8069 60.7C54.3069 60.7 54.7236 60.55 55.0569 60.25C55.3903 59.9167 55.5569 59.4333 55.5569 58.8V56.35C55.6236 56.3167 55.8403 56.3 56.2069 56.3C56.6069 56.2667 56.9236 56.25 57.1569 56.25C57.5236 56.25 57.9903 56.3167 58.5569 56.45C59.1236 56.55 59.6569 56.7833 60.1569 57.15C60.6903 57.5167 61.1403 58.0333 61.5069 58.7C61.8736 59.3333 62.0569 60.1667 62.0569 61.2Z" fill="#161925"/>
</svg>
