<svg width="414" height="77" viewBox="0 0 414 77" fill="none" xmlns="http://www.w3.org/2000/svg">
<path d="M32.2727 5.18182H50.9545V53.0455C50.9318 57.5909 49.7841 61.5909 47.5114 65.0455C45.2614 68.4773 42.1477 71.1591 38.1705 73.0909C34.2159 75 29.6591 75.9545 24.5 75.9545C20.0227 75.9545 15.9318 75.1818 12.2273 73.6364C8.52273 72.0682 5.56818 69.6136 3.36364 66.2727C1.15909 62.9091 0.0681819 58.5455 0.0909091 53.1818H19.0455C19.1136 54.9318 19.4091 56.4091 19.9318 57.6136C20.4773 58.8182 21.2273 59.7273 22.1818 60.3409C23.1591 60.9318 24.3409 61.2273 25.7273 61.2273C27.1364 61.2273 28.3182 60.9205 29.2727 60.3068C30.25 59.6932 30.9886 58.7841 31.4886 57.5795C31.9886 56.3523 32.25 54.8409 32.2727 53.0455V5.18182ZM74.8011 75.8182C71.4602 75.8182 68.5057 75.2727 65.9375 74.1818C63.392 73.0682 61.392 71.3864 59.9375 69.1364C58.483 66.8864 57.7557 64.0227 57.7557 60.5455C57.7557 57.6818 58.2443 55.2386 59.2216 53.2159C60.1989 51.1705 61.5625 49.5 63.3125 48.2045C65.0625 46.9091 67.0966 45.9205 69.4148 45.2386C71.7557 44.5568 74.2784 44.1136 76.983 43.9091C79.9148 43.6818 82.267 43.4091 84.0398 43.0909C85.8352 42.75 87.1307 42.2841 87.9261 41.6932C88.7216 41.0795 89.1193 40.2727 89.1193 39.2727V39.1364C89.1193 37.7727 88.5966 36.7273 87.5511 36C86.5057 35.2727 85.1648 34.9091 83.5284 34.9091C81.733 34.9091 80.267 35.3068 79.1307 36.1023C78.017 36.875 77.3466 38.0682 77.1193 39.6818H59.8011C60.0284 36.5 61.0398 33.5682 62.8352 30.8864C64.6534 28.1818 67.3011 26.0227 70.7784 24.4091C74.2557 22.7727 78.5966 21.9545 83.8011 21.9545C87.5511 21.9545 90.9148 22.3977 93.892 23.2841C96.8693 24.1477 99.4034 25.3636 101.494 26.9318C103.585 28.4773 105.176 30.2955 106.267 32.3864C107.381 34.4545 107.938 36.7045 107.938 39.1364V75H90.3466V67.6364H89.9375C88.892 69.5909 87.6193 71.1705 86.1193 72.375C84.642 73.5795 82.9489 74.4545 81.0398 75C79.1534 75.5455 77.0739 75.8182 74.8011 75.8182ZM80.9375 63.9545C82.3693 63.9545 83.7102 63.6591 84.9602 63.0682C86.233 62.4773 87.267 61.625 88.0625 60.5114C88.858 59.3977 89.2557 58.0455 89.2557 56.4545V52.0909C88.7557 52.2955 88.2216 52.4886 87.6534 52.6705C87.108 52.8523 86.517 53.0227 85.8807 53.1818C85.267 53.3409 84.608 53.4886 83.9034 53.625C83.2216 53.7614 82.5057 53.8864 81.7557 54C80.3011 54.2273 79.108 54.6023 78.1761 55.125C77.267 55.625 76.5852 56.25 76.1307 57C75.6989 57.7273 75.483 58.5455 75.483 59.4545C75.483 60.9091 75.9943 62.0227 77.017 62.7955C78.0398 63.5682 79.3466 63.9545 80.9375 63.9545ZM135.747 45.5455V75H116.929V5.18182H135.065V32.5909H135.611C136.793 29.25 138.759 26.6477 141.509 24.7841C144.259 22.8977 147.565 21.9545 151.429 21.9545C155.134 21.9545 158.349 22.7955 161.077 24.4773C163.827 26.1591 165.952 28.4773 167.452 31.4318C168.974 34.3864 169.724 37.7727 169.702 41.5909V75H150.884V45.5455C150.906 42.9545 150.259 40.9205 148.94 39.4432C147.645 37.9659 145.793 37.2273 143.384 37.2273C141.861 37.2273 140.52 37.5682 139.361 38.25C138.224 38.9091 137.338 39.8636 136.702 41.1136C136.088 42.3409 135.77 43.8182 135.747 45.5455ZM212.946 52.0909V22.6364H231.764V75H213.901V65.0455H213.355C212.219 68.3864 210.23 71 207.389 72.8864C204.548 74.75 201.173 75.6818 197.264 75.6818C193.605 75.6818 190.401 74.8409 187.651 73.1591C184.923 71.4773 182.798 69.1591 181.276 66.2045C179.776 63.25 179.014 59.8636 178.991 56.0455V22.6364H197.81V52.0909C197.832 54.6818 198.491 56.7159 199.787 58.1932C201.105 59.6705 202.946 60.4091 205.31 60.4091C206.878 60.4091 208.23 60.0795 209.366 59.4205C210.526 58.7386 211.412 57.7841 212.026 56.5568C212.662 55.3068 212.969 53.8182 212.946 52.0909ZM241.062 75V5.18182H259.881V31.7727H260.153C260.835 30 261.835 28.375 263.153 26.8977C264.472 25.3977 266.108 24.2045 268.062 23.3182C270.017 22.4091 272.29 21.9545 274.881 21.9545C278.335 21.9545 281.619 22.875 284.733 24.7159C287.869 26.5568 290.415 29.4545 292.369 33.4091C294.347 37.3636 295.335 42.5 295.335 48.8182C295.335 54.8636 294.392 59.875 292.506 63.8523C290.642 67.8295 288.142 70.7955 285.006 72.75C281.892 74.7045 278.472 75.6818 274.744 75.6818C272.29 75.6818 270.097 75.2841 268.165 74.4886C266.256 73.6705 264.619 72.5682 263.256 71.1818C261.915 69.7727 260.881 68.1818 260.153 66.4091H259.744V75H241.062ZM259.472 48.8182C259.472 51.3636 259.801 53.5682 260.46 55.4318C261.142 57.2727 262.097 58.7045 263.324 59.7273C264.574 60.7273 266.063 61.2273 267.79 61.2273C269.517 61.2273 270.983 60.7386 272.188 59.7614C273.415 58.7614 274.347 57.3409 274.983 55.5C275.642 53.6364 275.972 51.4091 275.972 48.8182C275.972 46.2273 275.642 44.0114 274.983 42.1705C274.347 40.3068 273.415 38.8864 272.188 37.9091C270.983 36.9091 269.517 36.4091 267.79 36.4091C266.063 36.4091 264.574 36.9091 263.324 37.9091C262.097 38.8864 261.142 40.3068 260.46 42.1705C259.801 44.0114 259.472 46.2273 259.472 48.8182Z" fill="#3BF4FB"/>
<path d="M313.438 76.0909C310.801 76.0909 308.54 75.1705 306.653 73.3295C304.79 71.4659 303.869 69.2045 303.892 66.5455C303.869 63.9545 304.79 61.7386 306.653 59.8977C308.54 58.0568 310.801 57.1364 313.438 57.1364C315.938 57.1364 318.142 58.0568 320.051 59.8977C321.983 61.7386 322.96 63.9545 322.983 66.5455C322.96 68.3182 322.494 69.9318 321.585 71.3864C320.699 72.8182 319.54 73.9659 318.108 74.8295C316.676 75.6705 315.119 76.0909 313.438 76.0909ZM333.21 75V22.6364H352.028V75H333.21ZM342.619 17.1818C340.074 17.1818 337.892 16.3409 336.074 14.6591C334.256 12.9773 333.347 10.9545 333.347 8.59091C333.347 6.22727 334.256 4.20454 336.074 2.52272C337.892 0.840908 340.074 0 342.619 0C345.188 0 347.369 0.840908 349.165 2.52272C350.983 4.20454 351.892 6.22727 351.892 8.59091C351.892 10.9545 350.983 12.9773 349.165 14.6591C347.369 16.3409 345.188 17.1818 342.619 17.1818ZM386.844 75.9545C381.162 75.9545 376.298 74.8295 372.253 72.5795C368.207 70.3068 365.105 67.1477 362.946 63.1023C360.787 59.0341 359.707 54.3182 359.707 48.9545C359.707 43.5909 360.787 38.8864 362.946 34.8409C365.105 30.7727 368.207 27.6136 372.253 25.3636C376.298 23.0909 381.162 21.9545 386.844 21.9545C392.526 21.9545 397.389 23.0909 401.435 25.3636C405.48 27.6136 408.582 30.7727 410.741 34.8409C412.901 38.8864 413.98 43.5909 413.98 48.9545C413.98 54.3182 412.901 59.0341 410.741 63.1023C408.582 67.1477 405.48 70.3068 401.435 72.5795C397.389 74.8295 392.526 75.9545 386.844 75.9545ZM386.98 62.0455C388.571 62.0455 389.946 61.5114 391.105 60.4432C392.264 59.375 393.162 57.8523 393.798 55.875C394.435 53.8977 394.753 51.5455 394.753 48.8182C394.753 46.0682 394.435 43.7159 393.798 41.7614C393.162 39.7841 392.264 38.2614 391.105 37.1932C389.946 36.125 388.571 35.5909 386.98 35.5909C385.298 35.5909 383.855 36.125 382.651 37.1932C381.446 38.2614 380.526 39.7841 379.889 41.7614C379.253 43.7159 378.935 46.0682 378.935 48.8182C378.935 51.5455 379.253 53.8977 379.889 55.875C380.526 57.8523 381.446 59.375 382.651 60.4432C383.855 61.5114 385.298 62.0455 386.98 62.0455Z" fill="white"/>
</svg>
