<svg width="838" height="745" viewBox="0 0 838 745" fill="none" xmlns="http://www.w3.org/2000/svg">
<path d="M416.772 27.2195C421.411 18.8813 423.731 14.7122 427.259 14.7122C430.787 14.7122 433.106 18.8813 437.745 27.2195L816.8 708.55C824.997 723.284 829.096 730.651 825.979 733.851C822.863 737.051 815.317 733.11 800.226 725.229C527.641 582.873 352.413 582.159 52.5806 727.582C38.1067 734.602 30.8698 738.112 27.8484 734.916C24.8271 731.72 28.7092 724.742 36.4732 710.787L416.772 27.2195Z" fill="#00AAFF"/>
<path d="M399.333 18.8487C403.972 10.5105 406.292 6.34139 409.82 6.34139C413.348 6.34139 415.667 10.5105 420.306 18.8487L799.361 700.18C807.558 714.913 811.657 722.28 808.54 725.48C805.424 728.68 797.878 724.739 782.787 716.858C510.202 574.502 334.974 573.788 35.1416 719.211C20.6677 726.231 13.4308 729.741 10.4094 726.545C7.38813 723.349 11.2702 716.372 19.0342 702.416L399.333 18.8487Z" fill="#3BF4FB"/>
<path d="M482.504 250.035C482.531 256.475 481.297 262.5 478.8 268.111C476.584 273.72 473.385 278.634 469.202 282.852C465.02 287.069 459.995 290.451 454.125 292.996C448.536 295.539 442.241 296.826 435.241 296.855L361.322 297.168C361.296 291.008 362.391 285.123 364.607 279.514C366.823 273.624 370.021 268.571 374.203 264.353C378.386 260.135 383.271 256.755 388.861 254.211C394.73 251.666 401.305 250.378 408.585 250.348L482.504 250.035Z" fill="#161925"/>
<path d="M422.729 555H426.929C434.209 555 441.209 554.3 447.929 552.9C454.649 551.5 460.669 548.98 465.989 545.34C471.029 541.7 475.229 536.66 478.589 530.22C481.669 523.78 483.209 515.38 483.209 505.02V250.08H476.489C469.769 250.08 463.189 250.92 456.749 252.6C450.309 254 444.569 256.66 439.529 260.58C434.489 264.22 430.429 269.26 427.349 275.7C424.269 282.14 422.729 290.4 422.729 300.48V555ZM330.749 514.68C330.749 519.44 331.729 524.2 333.689 528.96C335.369 533.72 338.029 538.06 341.669 541.98C345.029 545.62 349.509 548.7 355.109 551.22C360.429 553.74 366.589 555 373.589 555H375.269C382.829 555 389.129 553.74 394.169 551.22C399.209 548.42 403.409 545.2 406.769 541.56C409.849 537.64 412.089 533.58 413.489 529.38C414.609 524.9 415.169 520.98 415.169 517.62C415.169 515.38 415.169 513.42 415.169 511.74C414.889 509.78 414.329 507.68 413.489 505.44C409.849 508.8 405.369 510.48 400.049 510.48C395.849 510.48 392.349 509.22 389.549 506.7C386.749 503.9 385.349 499.84 385.349 494.52V473.94C384.789 473.66 382.969 473.52 379.889 473.52C376.529 473.24 373.869 473.1 371.909 473.1C368.829 473.1 364.909 473.66 360.149 474.78C355.389 475.62 350.909 477.58 346.709 480.66C342.229 483.74 338.449 488.08 335.369 493.68C332.289 499 330.749 506 330.749 514.68Z" fill="#161925"/>
</svg>
