<svg width="429" height="120" viewBox="0 0 429 120" fill="none" xmlns="http://www.w3.org/2000/svg">
<path d="M40.5553 30.8487C45.1942 22.5105 47.5137 18.3414 51.0417 18.3414C54.5697 18.3414 56.8891 22.5105 61.5281 30.8487L79.7214 63.5503C86.8332 76.3334 90.3891 82.7249 88.3037 85.785C86.2182 88.845 77.8616 87.7241 61.1483 85.4824C53.719 84.4859 46.3816 84.7377 38.6147 86.2483C22.9597 89.293 15.1322 90.8154 12.8856 87.7185C10.639 84.6217 14.1319 78.3434 21.1176 65.787L40.5553 30.8487Z" fill="#00AAFF"/>
<path d="M38.472 29.8487C43.1109 21.5105 45.4303 17.3414 48.9583 17.3414C52.4863 17.3414 54.8058 21.5105 59.4447 29.8487L77.6381 62.5503C84.7499 75.3334 88.3058 81.7249 86.2203 84.785C84.1349 87.845 75.7782 86.7241 59.065 84.4824C51.6356 83.4859 44.2983 83.7377 36.5313 85.2483C20.8763 88.293 13.0488 89.8154 10.8022 86.7185C8.55565 83.6217 12.0485 77.3434 19.0342 64.787L38.472 29.8487Z" fill="#3BF4FB"/>
<path d="M51.1069 77H50.6069C49.7403 77 48.9069 76.9167 48.1069 76.75C47.3069 76.5833 46.5903 76.2833 45.9569 75.85C45.3569 75.4167 44.8569 74.8167 44.4569 74.05C44.0903 73.2833 43.9069 72.2833 43.9069 71.05V40.7H44.7069C45.5069 40.7 46.2903 40.8 47.0569 41C47.8236 41.1667 48.5069 41.4833 49.1069 41.95C49.7069 42.3833 50.1903 42.9833 50.5569 43.75C50.9236 44.5167 51.1069 45.5 51.1069 46.7V77ZM62.0569 72.2C62.0569 72.7667 61.9403 73.3333 61.7069 73.9C61.5069 74.4667 61.1903 74.9833 60.7569 75.45C60.3569 75.8833 59.8236 76.25 59.1569 76.55C58.5236 76.85 57.7903 77 56.9569 77H56.7569C55.8569 77 55.1069 76.85 54.5069 76.55C53.9069 76.2167 53.4069 75.8333 53.0069 75.4C52.6403 74.9333 52.3736 74.45 52.2069 73.95C52.0736 73.4167 52.0069 72.95 52.0069 72.55C52.0069 72.2833 52.0069 72.05 52.0069 71.85C52.0403 71.6167 52.1069 71.3667 52.2069 71.1C52.6403 71.5 53.1736 71.7 53.8069 71.7C54.3069 71.7 54.7236 71.55 55.0569 71.25C55.3903 70.9167 55.5569 70.4333 55.5569 69.8V67.35C55.6236 67.3167 55.8403 67.3 56.2069 67.3C56.6069 67.2667 56.9236 67.25 57.1569 67.25C57.5236 67.25 57.9903 67.3167 58.5569 67.45C59.1236 67.55 59.6569 67.7833 60.1569 68.15C60.6903 68.5167 61.1403 69.0333 61.5069 69.7C61.8736 70.3333 62.0569 71.1667 62.0569 72.2Z" fill="#161925"/>
<path d="M110.993 79.12H129.393V88H99.7934V32.16H110.993V79.12ZM142.192 38.4C140.219 38.4 138.566 37.7867 137.232 36.56C135.952 35.28 135.312 33.7067 135.312 31.84C135.312 29.9733 135.952 28.4267 137.232 27.2C138.566 25.92 140.219 25.28 142.192 25.28C144.166 25.28 145.792 25.92 147.072 27.2C148.406 28.4267 149.072 29.9733 149.072 31.84C149.072 33.7067 148.406 35.28 147.072 36.56C145.792 37.7867 144.166 38.4 142.192 38.4ZM147.712 43.68V88H136.512V43.68H147.712ZM183.338 43.04C188.618 43.04 192.884 44.72 196.138 48.08C199.391 51.3867 201.018 56.0267 201.018 62V88H189.818V63.52C189.818 60 188.938 57.3067 187.178 55.44C185.418 53.52 183.018 52.56 179.978 52.56C176.884 52.56 174.431 53.52 172.618 55.44C170.858 57.3067 169.978 60 169.978 63.52V88H158.778V43.68H169.978V49.2C171.471 47.28 173.364 45.7867 175.658 44.72C178.004 43.6 180.564 43.04 183.338 43.04ZM237.908 88L222.868 69.12V88H211.668V28.8H222.868V62.48L237.748 43.68H252.308L232.788 65.92L252.468 88H237.908Z" fill="white"/>
<path d="M269.427 32.16V66.72C269.427 70.5067 270.414 73.4133 272.387 75.44C274.361 77.4133 277.134 78.4 280.707 78.4C284.334 78.4 287.134 77.4133 289.107 75.44C291.081 73.4133 292.067 70.5067 292.067 66.72V32.16H303.347V66.64C303.347 71.3867 302.307 75.4133 300.227 78.72C298.201 81.9733 295.454 84.4267 291.987 86.08C288.574 87.7333 284.761 88.56 280.547 88.56C276.387 88.56 272.601 87.7333 269.187 86.08C265.827 84.4267 263.161 81.9733 261.187 78.72C259.214 75.4133 258.227 71.3867 258.227 66.64V32.16H269.427ZM325.368 50.08C326.808 48.0533 328.782 46.3733 331.288 45.04C333.848 43.6533 336.755 42.96 340.008 42.96C343.795 42.96 347.208 43.8933 350.248 45.76C353.342 47.6267 355.768 50.2933 357.528 53.76C359.342 57.1733 360.248 61.1467 360.248 65.68C360.248 70.2133 359.342 74.24 357.528 77.76C355.768 81.2267 353.342 83.92 350.248 85.84C347.208 87.76 343.795 88.72 340.008 88.72C336.755 88.72 333.875 88.0533 331.368 86.72C328.915 85.3867 326.915 83.7067 325.368 81.68V109.12H314.168V43.68H325.368V50.08ZM348.808 65.68C348.808 63.0133 348.248 60.72 347.128 58.8C346.062 56.8267 344.622 55.3333 342.808 54.32C341.048 53.3067 339.128 52.8 337.048 52.8C335.022 52.8 333.102 53.3333 331.288 54.4C329.528 55.4133 328.088 56.9067 326.968 58.88C325.902 60.8533 325.368 63.1733 325.368 65.84C325.368 68.5067 325.902 70.8267 326.968 72.8C328.088 74.7733 329.528 76.2933 331.288 77.36C333.102 78.3733 335.022 78.88 337.048 78.88C339.128 78.88 341.048 78.3467 342.808 77.28C344.622 76.2133 346.062 74.6933 347.128 72.72C348.248 70.7467 348.808 68.4 348.808 65.68ZM374.067 38.4C372.094 38.4 370.441 37.7867 369.107 36.56C367.827 35.28 367.187 33.7067 367.187 31.84C367.187 29.9733 367.827 28.4267 369.107 27.2C370.441 25.92 372.094 25.28 374.067 25.28C376.041 25.28 377.667 25.92 378.947 27.2C380.281 28.4267 380.947 29.9733 380.947 31.84C380.947 33.7067 380.281 35.28 378.947 36.56C377.667 37.7867 376.041 38.4 374.067 38.4ZM379.587 43.68V88H368.387V43.68H379.587ZM407.613 88.72C403.986 88.72 400.733 88.08 397.853 86.8C394.973 85.4667 392.679 83.68 390.973 81.44C389.319 79.2 388.413 76.72 388.253 74H399.533C399.746 75.7067 400.573 77.12 402.013 78.24C403.506 79.36 405.346 79.92 407.533 79.92C409.666 79.92 411.319 79.4933 412.493 78.64C413.719 77.7867 414.333 76.6933 414.333 75.36C414.333 73.92 413.586 72.8533 412.093 72.16C410.653 71.4133 408.333 70.6133 405.133 69.76C401.826 68.96 399.106 68.1333 396.973 67.28C394.893 66.4267 393.079 65.12 391.533 63.36C390.039 61.6 389.293 59.2267 389.293 56.24C389.293 53.7867 389.986 51.5467 391.373 49.52C392.813 47.4933 394.839 45.8933 397.453 44.72C400.119 43.5467 403.239 42.96 406.813 42.96C412.093 42.96 416.306 44.2933 419.453 46.96C422.599 49.5733 424.333 53.12 424.653 57.6H413.933C413.773 55.84 413.026 54.4533 411.693 53.44C410.413 52.3733 408.679 51.84 406.493 51.84C404.466 51.84 402.893 52.2133 401.773 52.96C400.706 53.7067 400.173 54.7467 400.173 56.08C400.173 57.5733 400.919 58.72 402.413 59.52C403.906 60.2667 406.226 61.04 409.373 61.84C412.573 62.64 415.213 63.4667 417.293 64.32C419.373 65.1733 421.159 66.5067 422.653 68.32C424.199 70.08 424.999 72.4267 425.053 75.36C425.053 77.92 424.333 80.2133 422.893 82.24C421.506 84.2667 419.479 85.8667 416.813 87.04C414.199 88.16 411.133 88.72 407.613 88.72Z" fill="#3BF4FB"/>
</svg>
