<svg width="110" height="17" viewBox="0 0 110 17" fill="none" xmlns="http://www.w3.org/2000/svg">
<g clip-path="url(#clip0_2031_10)">
<path d="M7.62203 0.225586H11.5831V11.6233C11.5776 12.6912 11.3206 13.6249 10.812 14.4244C10.3033 15.2186 9.59983 15.8357 8.70157 16.2758C7.80872 16.7158 6.77517 16.9358 5.60093 16.9358C4.56195 16.9358 3.61769 16.756 2.76812 16.3965C1.92397 16.037 1.25027 15.4789 0.747025 14.7223C0.249189 13.9657 0.0029768 12.9971 0.00838806 11.8165H4.01C4.02624 12.2404 4.10741 12.6026 4.25353 12.9032C4.40503 13.1983 4.61336 13.421 4.87853 13.5712C5.14367 13.7215 5.46024 13.7966 5.82819 13.7966C6.21238 13.7966 6.53707 13.7161 6.80222 13.5551C7.06738 13.3888 7.2676 13.1446 7.40286 12.8227C7.54357 12.5007 7.61662 12.1009 7.62203 11.6233V0.225586ZM17.7012 16.7104H13.383L18.9917 0.225586H24.3407L29.9495 16.7104H25.6314L21.7271 4.379H21.5973L17.7012 16.7104ZM17.1249 10.2227H26.151V13.2493H17.1249V10.2227ZM31.7393 16.7104V0.225586H35.7571V6.84206H42.3074V0.225586H46.3171V16.7104H42.3074V10.0859H35.7571V16.7104H31.7393ZM58.8943 0.225586H62.9041V10.8586C62.9041 12.0875 62.6093 13.158 62.0193 14.0703C61.4295 14.9772 60.6069 15.6801 59.5519 16.1792C58.4967 16.6729 57.271 16.9197 55.8748 16.9197C54.4626 16.9197 53.2288 16.6729 52.1736 16.1792C51.1183 15.6801 50.2986 14.9772 49.714 14.0703C49.1298 13.158 48.8376 12.0875 48.8376 10.8586V0.225586H52.8555V10.5125C52.8555 11.0813 52.9798 11.5884 53.2288 12.0338C53.4831 12.4792 53.8376 12.828 54.2921 13.0802C54.7467 13.3324 55.2743 13.4585 55.8748 13.4585C56.4755 13.4585 57.0005 13.3324 57.4495 13.0802C57.904 12.828 58.2586 12.4792 58.5129 12.0338C58.7671 11.5884 58.8943 11.0813 58.8943 10.5125V0.225586ZM65.4224 16.7104V0.225586H72.354C73.5988 0.225586 74.6405 0.399985 75.479 0.748788C76.3233 1.09759 76.9564 1.58591 77.3786 2.21375C77.806 2.84158 78.0198 3.56871 78.0198 4.3951C78.0198 5.02294 77.8871 5.58371 77.6219 6.07739C77.3569 6.56572 76.9917 6.97086 76.5262 7.29282C76.061 7.61478 75.5224 7.84017 74.911 7.96895V8.12995C75.5819 8.16214 76.2017 8.34191 76.7698 8.66923C77.3433 8.99658 77.8033 9.4527 78.1495 10.0376C78.496 10.6171 78.6691 11.304 78.6691 12.0982C78.6691 12.9836 78.4419 13.7751 77.9874 14.4727C77.5326 15.165 76.8752 15.7123 76.0148 16.1148C75.1545 16.5119 74.11 16.7104 72.8817 16.7104H65.4224ZM69.4402 13.4988H71.924C72.7952 13.4988 73.4364 13.3351 73.8476 13.0078C74.2643 12.6805 74.4726 12.2243 74.4726 11.6394C74.4726 11.2155 74.3726 10.8506 74.1724 10.5447C73.9722 10.2335 73.6881 9.99469 73.32 9.82832C72.9521 9.65662 72.5112 9.57075 71.9969 9.57075H69.4402V13.4988ZM69.4402 7.00304H71.6643C72.1026 7.00304 72.4922 6.9306 72.8331 6.78573C73.1741 6.64082 73.4391 6.43156 73.6286 6.15788C73.8233 5.88421 73.9207 5.55419 73.9207 5.16782C73.9207 4.61511 73.7231 4.18045 73.3281 3.86385C72.9331 3.54725 72.4002 3.38894 71.729 3.38894H69.4402V7.00304Z" fill="#3BF4FB"/>
<path d="M82.8328 16.9437C82.2482 16.9437 81.7478 16.7398 81.3311 16.3319C80.9199 15.9241 80.7168 15.4304 80.7223 14.8509C80.7168 14.2821 80.9199 13.7964 81.3311 13.394C81.7478 12.9861 82.2482 12.7822 82.8328 12.7822C83.3847 12.7822 83.8716 12.9861 84.2937 13.394C84.7213 13.7964 84.9377 14.2821 84.943 14.8509C84.9377 15.2372 84.8349 15.5887 84.6347 15.9053C84.4399 16.2219 84.1828 16.4742 83.8635 16.662C83.5497 16.8498 83.2061 16.9437 82.8328 16.9437Z" fill="#1F2B35"/>
<path d="M91.5828 0.225379V16.7102H87.5649V0.225379H91.5828ZM109.795 8.46781C109.795 10.2816 109.443 11.819 108.74 13.08C108.036 14.3411 107.084 15.2989 105.883 15.9536C104.687 16.6083 103.345 16.9356 101.857 16.9356C100.363 16.9356 99.0185 16.6056 97.8226 15.9455C96.6268 15.2855 95.6771 14.3277 94.9735 13.072C94.2757 11.8109 93.9266 10.2762 93.9266 8.46781C93.9266 6.65405 94.2757 5.11664 94.9735 3.85559C95.6771 2.59455 96.6268 1.63668 97.8226 0.982007C99.0185 0.327337 100.363 0 101.857 0C103.345 0 104.687 0.327337 105.883 0.982007C107.084 1.63668 108.036 2.59455 108.74 3.85559C109.443 5.11664 109.795 6.65405 109.795 8.46781ZM105.688 8.46781C105.688 7.39457 105.534 6.48769 105.225 5.74715C104.922 5.00663 104.484 4.44587 103.91 4.06486C103.342 3.68387 102.658 3.49338 101.857 3.49338C101.061 3.49338 100.377 3.68387 99.803 4.06486C99.2295 4.44587 98.7885 5.00663 98.4802 5.74715C98.1771 6.48769 98.0257 7.39457 98.0257 8.46781C98.0257 9.54103 98.1771 10.4479 98.4802 11.1884C98.7885 11.929 99.2295 12.4898 99.803 12.8707C100.377 13.2517 101.061 13.4422 101.857 13.4422C102.658 13.4422 103.342 13.2517 103.91 12.8707C104.484 12.4898 104.922 11.929 105.225 11.1884C105.534 10.4479 105.688 9.54103 105.688 8.46781Z" fill="#1F2B35"/>
</g>
<defs>
<clipPath id="clip0_2031_10">
<rect width="110" height="17" fill="white"/>
</clipPath>
</defs>
</svg>
