<svg width="30" height="15" viewBox="0 0 30 15" fill="none" xmlns="http://www.w3.org/2000/svg">
<rect x="0.5" y="0.5" width="29" height="14" rx="5.5" fill="#161925" stroke="#00F968"/>
<path d="M5.57386 10V4.18182H9.30114V5.06534H6.62784V6.64489H9.04545V7.52841H6.62784V10H5.57386ZM10.2614 10V4.18182H12.4432C12.8902 4.18182 13.2652 4.25947 13.5682 4.41477C13.8731 4.57008 14.1032 4.78788 14.2585 5.06818C14.4157 5.34659 14.4943 5.6714 14.4943 6.04261C14.4943 6.41572 14.4148 6.73958 14.2557 7.0142C14.0985 7.28693 13.8665 7.49811 13.5597 7.64773C13.2528 7.79545 12.8759 7.86932 12.429 7.86932H10.875V6.99432H12.2869C12.5483 6.99432 12.7623 6.95833 12.929 6.88636C13.0956 6.8125 13.2188 6.70549 13.2983 6.56534C13.3797 6.4233 13.4205 6.24905 13.4205 6.04261C13.4205 5.83617 13.3797 5.66004 13.2983 5.5142C13.2169 5.36648 13.0928 5.25473 12.9261 5.17898C12.7595 5.10133 12.5445 5.0625 12.2812 5.0625H11.3153V10H10.2614ZM13.267 7.36364L14.7074 10H13.5312L12.1165 7.36364H13.267ZM15.4645 10V4.18182H19.2486V5.06534H16.5185V6.64489H19.0526V7.52841H16.5185V9.11648H19.2713V10H15.4645ZM20.3239 10V4.18182H24.108V5.06534H21.3778V6.64489H23.9119V7.52841H21.3778V9.11648H24.1307V10H20.3239Z" fill="#00F968"/>
</svg>
