<svg width="30" height="15" viewBox="0 0 30 15" fill="none" xmlns="http://www.w3.org/2000/svg">
<rect x="0.5" y="0.5" width="29" height="14" rx="5.5" fill="#161925" stroke="#D2E823"/>
<path d="M4.57386 10V4.18182H6.75568C7.20265 4.18182 7.57765 4.26515 7.88068 4.43182C8.18561 4.59848 8.41572 4.82765 8.57102 5.11932C8.72822 5.40909 8.80682 5.73864 8.80682 6.10795C8.80682 6.48106 8.72822 6.8125 8.57102 7.10227C8.41383 7.39205 8.18182 7.62027 7.875 7.78693C7.56818 7.9517 7.19034 8.03409 6.74148 8.03409H5.29545V7.16761H6.59943C6.8608 7.16761 7.07481 7.12216 7.24148 7.03125C7.40814 6.94034 7.53125 6.81534 7.6108 6.65625C7.69223 6.49716 7.73295 6.31439 7.73295 6.10795C7.73295 5.90152 7.69223 5.7197 7.6108 5.5625C7.53125 5.4053 7.4072 5.28314 7.23864 5.19602C7.07197 5.10701 6.85701 5.0625 6.59375 5.0625H5.62784V10H4.57386ZM9.7223 10V4.18182H11.9041C12.3511 4.18182 12.7261 4.25947 13.0291 4.41477C13.334 4.57008 13.5642 4.78788 13.7195 5.06818C13.8767 5.34659 13.9553 5.6714 13.9553 6.04261C13.9553 6.41572 13.8757 6.73958 13.7166 7.0142C13.5594 7.28693 13.3274 7.49811 13.0206 7.64773C12.7138 7.79545 12.3369 7.86932 11.8899 7.86932H10.3359V6.99432H11.7479C12.0092 6.99432 12.2232 6.95833 12.3899 6.88636C12.5566 6.8125 12.6797 6.70549 12.7592 6.56534C12.8407 6.4233 12.8814 6.24905 12.8814 6.04261C12.8814 5.83617 12.8407 5.66004 12.7592 5.5142C12.6778 5.36648 12.5537 5.25473 12.3871 5.17898C12.2204 5.10133 12.0054 5.0625 11.7422 5.0625H10.7763V10H9.7223ZM12.728 7.36364L14.1683 10H12.9922L11.5774 7.36364H12.728ZM14.9254 10V4.18182H18.7095V5.06534H15.9794V6.64489H18.5135V7.52841H15.9794V9.11648H18.7322V10H14.9254ZM19.7848 4.18182H21.0746L22.8018 8.39773H22.87L24.5973 4.18182H25.8871V10H24.8757V6.00284H24.8217L23.2138 9.98295H22.4581L20.8501 5.99432H20.7962V10H19.7848V4.18182Z" fill="#D2E823"/>
</svg>
