<svg width="30" height="15" viewBox="0 0 30 15" fill="none" xmlns="http://www.w3.org/2000/svg">
<rect x="0.5" y="0.5" width="29" height="14" rx="5.5" fill="#161925" stroke="#00AAFF"/>
<path d="M7.7358 5.78125C7.70928 5.53314 7.59754 5.33996 7.40057 5.2017C7.20549 5.06345 6.9517 4.99432 6.6392 4.99432C6.41951 4.99432 6.23106 5.02746 6.07386 5.09375C5.91667 5.16004 5.7964 5.25 5.71307 5.36364C5.62973 5.47727 5.58712 5.60701 5.58523 5.75284C5.58523 5.87405 5.61269 5.97917 5.66761 6.06818C5.72443 6.1572 5.80114 6.23295 5.89773 6.29545C5.99432 6.35606 6.10133 6.4072 6.21875 6.44886C6.33617 6.49053 6.45455 6.52557 6.57386 6.55398L7.11932 6.69034C7.33902 6.74148 7.55019 6.81061 7.75284 6.89773C7.95739 6.98485 8.14015 7.0947 8.30114 7.22727C8.46402 7.35985 8.5928 7.51989 8.6875 7.70739C8.7822 7.89489 8.82955 8.11458 8.82955 8.36648C8.82955 8.70739 8.74242 9.00758 8.56818 9.26705C8.39394 9.52462 8.14205 9.72633 7.8125 9.87216C7.48485 10.0161 7.08807 10.0881 6.62216 10.0881C6.16951 10.0881 5.77652 10.018 5.44318 9.87784C5.11174 9.73769 4.85227 9.53314 4.66477 9.2642C4.47917 8.99527 4.37879 8.66761 4.36364 8.28125H5.40057C5.41572 8.4839 5.47822 8.65246 5.58807 8.78693C5.69792 8.9214 5.84091 9.02178 6.01705 9.08807C6.19508 9.15436 6.39394 9.1875 6.61364 9.1875C6.8428 9.1875 7.04356 9.15341 7.21591 9.08523C7.39015 9.01515 7.52652 8.91856 7.625 8.79545C7.72348 8.67045 7.77367 8.52462 7.77557 8.35795C7.77367 8.20644 7.72917 8.08144 7.64205 7.98295C7.55492 7.88258 7.43277 7.79924 7.27557 7.73295C7.12027 7.66477 6.93845 7.60417 6.73011 7.55114L6.06818 7.38068C5.58902 7.25758 5.21023 7.07102 4.93182 6.82102C4.6553 6.56913 4.51705 6.23485 4.51705 5.81818C4.51705 5.47538 4.60985 5.17519 4.79545 4.91761C4.98295 4.66004 5.23769 4.46023 5.55966 4.31818C5.88163 4.17424 6.24621 4.10227 6.65341 4.10227C7.06629 4.10227 7.42803 4.17424 7.73864 4.31818C8.05114 4.46023 8.2964 4.65814 8.47443 4.91193C8.65246 5.16383 8.74432 5.4536 8.75 5.78125H7.7358ZM9.51349 5.06534V4.18182H14.1555V5.06534H12.3572V10H11.3118V5.06534H9.51349ZM15.0945 10H13.9695L16.0178 4.18182H17.3189L19.37 10H18.245L16.6911 5.375H16.6456L15.0945 10ZM15.1314 7.71875H18.1996V8.56534H15.1314V7.71875ZM24.9176 4.18182V10H23.9801L21.2386 6.03693H21.1903V10H20.1364V4.18182H21.0795L23.8182 8.14773H23.8693V4.18182H24.9176Z" fill="#00AAFF"/>
</svg>
