<svg width="92" height="82" viewBox="0 0 92 82" fill="none" xmlns="http://www.w3.org/2000/svg">
<path d="M36.472 19.7687C41.1109 11.4305 43.4303 7.26138 46.9583 7.26138C50.4863 7.26138 52.8058 11.4305 57.4447 19.7687L71.7214 45.4303C78.6626 57.9067 82.1331 64.1449 80.1902 67.167C78.2472 70.1891 69.8113 69.5157 52.9396 68.1687C48.2141 67.7915 43.4918 67.9663 38.6133 68.6964C22.838 71.0574 14.9504 72.2379 12.8237 69.1679C10.697 66.0978 14.115 59.9542 20.9509 47.667L36.472 19.7687Z" fill="#00AAFF"/>
<path d="M34.5553 18.8487C39.1942 10.5105 41.5137 6.34137 45.0417 6.34137C48.5696 6.34137 50.8891 10.5105 55.528 18.8487L69.8047 44.5103C76.7459 56.9867 80.2165 63.2248 78.2735 66.247C76.3305 69.2691 67.8947 68.5956 51.023 67.2487C46.2974 66.8715 41.5752 67.0463 36.6966 67.7764C20.9214 70.1374 13.0337 71.3179 10.907 68.2479C8.78033 65.1778 12.1983 59.0342 19.0342 46.747L34.5553 18.8487Z" fill="#3BF4FB"/>
<path d="M44.6404 61.76H44.1604C43.3284 61.76 42.5284 61.68 41.7604 61.52C40.9924 61.36 40.3044 61.072 39.6964 60.656C39.1204 60.24 38.6404 59.664 38.2564 58.928C37.9044 58.192 37.7284 57.232 37.7284 56.048V26.912H38.4964C39.2644 26.912 40.0164 27.008 40.7524 27.2C41.4884 27.36 42.1444 27.664 42.7204 28.112C43.2964 28.528 43.7604 29.104 44.1124 29.84C44.4644 30.576 44.6404 31.52 44.6404 32.672V61.76ZM55.1524 57.152C55.1524 57.696 55.0404 58.24 54.8164 58.784C54.6244 59.328 54.3204 59.824 53.9044 60.272C53.5204 60.688 53.0084 61.04 52.3684 61.328C51.7604 61.616 51.0564 61.76 50.2564 61.76H50.0644C49.2004 61.76 48.4804 61.616 47.9044 61.328C47.3284 61.008 46.8484 60.64 46.4644 60.224C46.1124 59.776 45.8564 59.312 45.6964 58.832C45.5684 58.32 45.5044 57.872 45.5044 57.488C45.5044 57.232 45.5044 57.008 45.5044 56.816C45.5364 56.592 45.6004 56.352 45.6964 56.096C46.1124 56.48 46.6244 56.672 47.2324 56.672C47.7124 56.672 48.1124 56.528 48.4324 56.24C48.7524 55.92 48.9124 55.456 48.9124 54.848V52.496C48.9764 52.464 49.1844 52.448 49.5364 52.448C49.9204 52.416 50.2244 52.4 50.4484 52.4C50.8004 52.4 51.2484 52.464 51.7924 52.592C52.3364 52.688 52.8484 52.912 53.3284 53.264C53.8404 53.616 54.2724 54.112 54.6244 54.752C54.9764 55.36 55.1524 56.16 55.1524 57.152Z" fill="#161925"/>
</svg>
